<?xml version="1.0" standalone="no"?>
<!DOCTYPE svg PUBLIC "-//W3C//DTD SVG 20010904//EN"
 "http://www.w3.org/TR/2001/REC-SVG-20010904/DTD/svg10.dtd">
<svg version="1.0" xmlns="http://www.w3.org/2000/svg"
 width="768.000000pt" height="768.000000pt" viewBox="0 0 768.000000 768.000000"
 preserveAspectRatio="xMidYMid meet">
<metadata>
Created by potrace 1.11, written by Peter Selinger 2001-2013
</metadata>
<g transform="translate(0.000000,768.000000) scale(0.100000,-0.100000)"
fill="#000000" stroke="none">
<path d="M3120 7624 c-30 -7 -68 -15 -85 -18 -16 -3 -68 -16 -115 -29 -47 -14
-98 -28 -115 -32 -104 -24 -412 -148 -590 -237 -147 -73 -369 -203 -430 -250
-5 -5 -64 -48 -130 -97 -66 -48 -130 -97 -141 -107 -12 -10 -48 -41 -80 -69
-75 -63 -315 -303 -374 -374 -25 -30 -50 -59 -55 -65 -6 -6 -47 -58 -92 -116
-258 -336 -467 -733 -608 -1155 -20 -60 -38 -117 -40 -125 -2 -8 -19 -78 -38
-155 -34 -135 -41 -165 -52 -230 -3 -16 -7 -39 -9 -50 -3 -18 -20 -132 -31
-210 -13 -100 -20 -239 -20 -450 0 -255 5 -342 31 -525 20 -146 20 -144 33
-210 22 -117 35 -173 51 -235 6 -22 12 -47 14 -55 34 -128 36 -133 81 -175 25
-25 45 -52 45 -64 0 -12 5 -21 10 -21 6 0 10 -13 10 -30 0 -16 5 -30 10 -30 6
0 10 -5 10 -11 0 -6 14 -24 30 -39 17 -15 30 -33 30 -39 0 -6 5 -11 10 -11 6
0 10 -7 10 -15 0 -8 5 -15 10 -15 6 0 10 -7 10 -15 0 -8 4 -15 8 -15 15 0 52
-37 52 -51 0 -8 9 -21 20 -29 11 -8 20 -20 20 -27 0 -7 4 -13 9 -13 18 0 91
-79 91 -99 0 -11 5 -21 10 -21 6 0 10 -7 10 -15 0 -8 5 -15 10 -15 6 0 10 -9
10 -19 0 -11 9 -23 20 -26 11 -3 20 -11 20 -17 0 -12 39 -48 52 -48 4 0 8 -7
8 -15 0 -8 5 -15 10 -15 6 0 10 -11 10 -25 0 -14 5 -25 10 -25 6 0 10 -9 10
-20 0 -11 5 -20 10 -20 6 0 10 -9 10 -20 0 -11 5 -20 10 -20 6 0 10 -7 10 -15
0 -8 5 -15 10 -15 6 0 10 -7 10 -15 0 -8 5 -15 10 -15 6 0 10 -16 10 -35 0
-19 5 -35 10 -35 6 0 10 -7 10 -15 0 -8 5 -15 10 -15 6 0 10 -7 10 -15 0 -8 9
-24 20 -35 11 -11 20 -33 20 -50 0 -16 5 -30 10 -30 6 0 10 -7 10 -15 0 -8 4
-15 9 -15 10 0 91 -75 91 -85 0 -5 27 -37 66 -76 27 -27 88 -78 128 -108 25
-18 46 -41 46 -51 0 -9 14 -31 30 -48 17 -18 30 -35 30 -40 0 -4 10 -14 21
-22 12 -8 27 -21 35 -27 7 -7 19 -13 27 -13 8 0 26 -11 41 -25 15 -14 38 -28
51 -31 14 -3 25 -13 25 -23 0 -9 9 -23 20 -31 11 -8 20 -20 20 -28 0 -18 25
-42 44 -42 9 0 16 -4 16 -10 0 -5 9 -10 20 -10 11 0 20 -4 20 -9 0 -5 9 -13
20 -16 11 -3 20 -12 20 -19 0 -12 120 -76 145 -76 7 0 17 -9 20 -20 3 -11 13
-20 21 -20 8 0 14 -6 14 -13 0 -7 21 -24 47 -37 54 -28 73 -44 73 -59 0 -6 9
-11 20 -11 11 0 20 -4 20 -9 0 -5 9 -13 20 -16 11 -3 20 -15 20 -26 0 -10 4
-19 9 -19 9 0 51 -34 102 -82 16 -16 40 -28 54 -28 25 0 35 -6 76 -43 10 -9
32 -17 49 -17 16 0 30 -4 30 -9 0 -10 63 -22 253 -47 46 -6 67 -24 27 -24 -11
0 -20 -4 -20 -10 0 -5 -8 -10 -18 -10 -11 0 -26 -8 -35 -18 -15 -16 -15 -18 1
-19 9 -1 37 -8 62 -17 25 -8 81 -24 125 -35 78 -19 101 -25 175 -39 44 -9
1404 -9 1445 -1 197 42 511 136 630 189 11 5 49 21 85 36 107 43 327 156 445
228 147 89 149 90 155 97 3 3 15 11 26 17 23 12 268 194 289 215 7 7 36 32 66
57 148 123 414 412 577 625 30 40 174 260 197 300 15 28 35 61 44 75 33 49
150 287 204 415 87 210 185 518 213 675 3 14 9 41 14 60 5 20 12 51 14 70 3
19 9 55 15 80 6 26 10 206 11 428 l0 382 -26 0 c-28 0 -94 60 -94 85 0 9 -5
23 -10 33 -6 9 -31 67 -56 127 -48 115 -63 179 -71 308 -2 42 -8 77 -13 77 -4
0 -11 24 -13 53 -9 83 -18 127 -28 127 -5 0 -9 7 -9 15 0 8 -4 15 -10 15 -5 0
-10 14 -10 30 0 17 -4 30 -10 30 -5 0 -10 13 -10 29 0 17 -4 33 -10 36 -6 4
-10 55 -10 121 0 69 -4 114 -10 114 -5 0 -10 18 -10 39 0 22 -4 43 -10 46 -5
3 -10 17 -10 30 0 28 -20 75 -32 75 -4 0 -8 43 -8 95 l0 95 -70 0 c-38 0 -70
3 -71 8 0 4 -2 16 -3 27 -2 11 -6 49 -10 84 -5 45 -13 70 -27 82 -10 9 -19 26
-19 38 0 11 -4 21 -10 21 -5 0 -10 7 -10 15 0 8 -31 47 -70 86 -41 41 -70 79
-70 91 0 20 -34 58 -52 58 -4 0 -8 9 -8 21 0 21 -21 49 -37 49 -10 0 -43 37
-43 48 0 4 -9 14 -20 22 -11 8 -20 20 -20 27 0 14 -18 49 -35 69 -36 43 -45
56 -45 67 0 7 -9 19 -20 27 -11 8 -20 20 -20 27 0 7 -4 13 -10 13 -5 0 -10 9
-10 20 0 11 -4 20 -10 20 -5 0 -10 9 -10 19 0 11 -9 23 -20 26 -11 3 -20 12
-20 19 0 13 -57 66 -72 66 -4 0 -8 7 -8 15 0 8 -8 15 -17 15 -30 0 -103 44
-103 61 0 9 -9 19 -20 22 -12 3 -20 14 -20 25 0 12 -9 23 -20 27 -11 3 -20 11
-20 16 0 5 -4 9 -10 9 -9 0 -18 6 -72 52 -11 10 -29 20 -39 23 -11 4 -19 10
-19 15 0 11 -59 70 -70 70 -5 0 -11 8 -14 18 -4 11 -18 25 -31 32 -14 7 -25
19 -25 26 0 7 -9 16 -20 19 -11 3 -20 10 -20 15 0 5 -9 12 -20 15 -11 3 -20
13 -20 21 0 8 -9 14 -20 14 -11 0 -20 6 -20 13 0 12 -104 68 -127 67 -7 0 -13
5 -13 10 0 6 -8 10 -18 10 -10 0 -24 9 -32 20 -8 11 -22 20 -32 20 -10 0 -18
5 -18 10 0 6 -9 10 -20 10 -11 0 -20 5 -20 10 0 6 -9 10 -20 10 -11 0 -20 5
-20 10 0 6 -24 10 -54 10 -30 0 -58 5 -61 10 -3 6 -13 10 -21 10 -9 0 -22 7
-31 15 -8 9 -28 19 -44 22 -16 3 -29 9 -29 14 0 5 -14 9 -30 9 -36 0 -110 22
-110 32 0 5 -13 8 -30 8 -16 0 -30 5 -30 10 0 6 -11 10 -24 10 -14 0 -28 5
-31 10 -3 6 -15 10 -26 10 -10 0 -19 5 -19 10 0 6 -18 10 -40 10 -22 0 -40 5
-40 10 0 6 -6 10 -13 10 -7 0 -23 9 -35 20 -20 19 -35 20 -247 20 -124 0 -225
3 -225 8 0 4 -18 13 -40 20 -59 18 -993 15 -1070 -4z"/>
</g>
</svg>
